<?xml version="1.0" encoding="UTF-8"?>
<!DOCTYPE svg PUBLIC "-//W3C//DTD SVG 1.1//EN" "http://www.w3.org/Graphics/SVG/1.1/DTD/svg11.dtd">
<!-- Creator: CorelDRAW Home & Student X7 -->
<svg xmlns="http://www.w3.org/2000/svg" xml:space="preserve" width="120.469mm" height="18.2511mm" version="1.1" style="shape-rendering:geometricPrecision; text-rendering:geometricPrecision; image-rendering:optimizeQuality; fill-rule:evenodd; clip-rule:evenodd"
viewBox="0 0 12047 1825"
 xmlns:xlink="http://www.w3.org/1999/xlink">
 <defs>
  <style type="text/css">
   <![CDATA[
    .fil0 {fill:white}
    .fil1 {fill:white;fill-rule:nonzero}
   ]]>
  </style>
 </defs>
 <g id="Camada_x0020_1">
  <metadata id="CorelCorpID_0Corel-Layer"/>
  <g id="_694830976">
   <path class="fil0" d="M8397 1118c0,2 -1,4 -3,5 -1,2 -4,3 -7,4 -3,1 -6,2 -11,3 -5,0 -10,1 -18,1 -6,0 -12,-1 -17,-1 -4,-1 -8,-2 -10,-3 -3,-1 -5,-2 -5,-4 -1,-1 -1,-3 -1,-5l49 -242 -247 0 -49 242c0,2 -1,4 -3,5 -1,2 -3,3 -6,4 -3,1 -7,2 -12,3 -5,0 -10,1 -17,1 -7,0 -13,-1 -18,-1 -4,-1 -8,-2 -10,-3 -3,-1 -4,-2 -5,-4 -1,-1 -1,-3 -1,-5l104 -522c1,-2 2,-4 3,-6 2,-1 4,-3 7,-4 3,-1 7,-2 12,-2 5,-1 10,-1 17,-1 7,0 13,0 17,1 5,0 9,1 11,2 3,1 4,3 5,4 1,2 1,4 0,6l-43 218 247 0 44 -218c0,-2 1,-4 2,-6 2,-1 4,-3 7,-4 3,-1 7,-2 12,-2 4,-1 10,-1 18,-1 6,0 12,0 16,1 5,0 8,1 11,2 3,1 4,3 5,4 1,2 1,4 0,6l-104 522zm498 -301c0,19 -5,37 -14,52 -9,15 -23,29 -42,40 -19,11 -43,19 -73,25 -29,6 -65,9 -106,9l-45 0c-2,9 -3,18 -4,26 0,9 -1,17 -1,25 0,28 7,49 21,64 14,15 36,22 67,22 18,0 34,-1 49,-4 14,-3 26,-5 37,-8 10,-3 19,-6 26,-9 6,-3 11,-4 13,-4 3,0 5,1 6,3 1,2 2,4 2,8 0,2 0,6 -1,10 0,4 -1,8 -2,12 -1,4 -3,8 -5,11 -2,4 -4,7 -6,9 -3,4 -9,7 -18,10 -8,3 -18,6 -30,9 -12,3 -25,5 -39,6 -14,2 -28,3 -42,3 -24,0 -46,-3 -65,-9 -19,-5 -35,-14 -47,-25 -12,-12 -22,-26 -28,-44 -6,-17 -9,-37 -9,-61 0,-18 2,-38 5,-59 4,-20 9,-41 17,-61 7,-21 17,-40 29,-59 12,-19 26,-35 43,-50 17,-14 36,-25 58,-34 22,-9 46,-13 74,-13 23,0 43,3 59,9 17,6 30,13 41,22 10,10 18,20 22,31 5,12 8,23 8,34zm-72 6c0,-14 -5,-26 -16,-35 -11,-8 -27,-13 -48,-13 -18,0 -34,3 -48,10 -14,6 -26,14 -37,25 -11,11 -20,23 -28,37 -8,14 -14,29 -19,45l43 0c29,0 54,-2 74,-6 19,-3 35,-8 47,-14 12,-7 20,-14 25,-22 5,-9 7,-18 7,-27zm190 295c0,2 -1,4 -3,5 -1,2 -3,3 -6,4 -3,1 -7,2 -11,3 -5,0 -11,1 -17,1 -7,0 -13,-1 -17,-1 -5,-1 -8,-2 -10,-3 -3,-1 -4,-2 -5,-4 0,-1 -1,-3 0,-5l112 -561c0,-2 1,-4 2,-5 2,-2 4,-4 7,-5 3,-1 6,-2 11,-2 4,-1 10,-1 17,-1 7,0 13,0 17,1 4,0 8,1 10,2 2,1 4,3 4,5 1,1 1,3 1,5l-112 561zm511 -260c0,16 -2,34 -5,55 -3,20 -8,40 -15,61 -7,21 -15,41 -26,60 -10,20 -23,37 -38,52 -15,15 -32,27 -51,36 -20,9 -42,14 -66,14 -13,0 -24,-1 -35,-4 -10,-2 -19,-6 -28,-10 -9,-5 -17,-10 -24,-16 -7,-6 -14,-13 -20,-20l-36 182c0,2 -1,4 -2,6 -2,1 -4,3 -7,4 -2,1 -6,2 -11,2 -4,1 -10,1 -17,1 -7,0 -12,0 -16,-1 -5,0 -8,-1 -10,-2 -3,-1 -5,-3 -5,-4 -1,-2 -1,-4 -1,-6l106 -528c0,-5 3,-8 8,-10 5,-2 14,-3 25,-3 6,0 11,0 15,1 3,0 6,1 9,2 2,1 3,2 4,4 0,1 1,3 0,6l-14 71c4,-9 11,-19 20,-29 9,-11 20,-21 33,-30 13,-9 28,-16 44,-22 16,-6 32,-9 49,-9 21,0 39,4 53,11 15,7 26,17 35,29 9,12 16,27 20,43 4,17 6,35 6,54zm-73 4c0,-12 -1,-23 -3,-33 -2,-10 -5,-19 -10,-26 -5,-7 -11,-13 -18,-17 -8,-4 -17,-6 -28,-6 -15,0 -31,4 -46,13 -16,8 -31,20 -44,35 -13,15 -25,33 -36,54 -10,20 -18,43 -23,67l-13 70c13,19 27,34 42,43 15,10 32,15 51,15 15,0 29,-4 41,-11 12,-7 23,-16 32,-28 10,-12 18,-25 25,-40 7,-15 12,-30 17,-46 5,-16 8,-32 10,-47 2,-16 3,-30 3,-43zm779 -222c0,6 -1,13 -3,22 -2,9 -5,15 -8,20 -3,5 -6,8 -10,8 -4,0 -8,-3 -14,-8 -5,-5 -12,-10 -21,-16 -9,-6 -21,-12 -35,-17 -14,-5 -32,-8 -53,-8 -23,0 -45,5 -64,13 -20,9 -37,21 -53,36 -15,15 -29,32 -41,52 -11,20 -21,40 -29,62 -7,21 -13,43 -17,64 -4,22 -6,43 -6,63 0,22 3,42 8,60 6,17 14,32 25,44 10,12 23,21 39,27 15,6 33,9 52,9 22,0 41,-2 57,-7 16,-5 29,-10 41,-16 11,-6 20,-12 28,-16 7,-5 14,-8 18,-8 3,0 6,1 7,4 2,2 2,5 2,10 0,1 0,3 0,6 -1,2 -1,5 -2,8 0,3 -1,7 -2,10 0,4 -1,7 -2,10 -1,4 -3,7 -4,9 -1,3 -3,6 -6,9 -3,2 -9,6 -19,12 -9,5 -21,10 -34,15 -14,5 -29,9 -46,13 -17,3 -35,5 -54,5 -28,0 -54,-4 -77,-13 -23,-8 -43,-21 -59,-37 -16,-17 -28,-38 -37,-63 -9,-24 -13,-53 -13,-85 0,-27 3,-54 8,-82 6,-28 14,-56 25,-82 11,-27 24,-52 41,-75 16,-24 35,-45 57,-62 22,-18 46,-32 73,-42 27,-10 57,-16 90,-16 20,0 39,3 57,7 18,5 33,11 45,18 13,7 22,13 27,18 6,6 9,12 9,19zm357 177c0,19 -5,37 -14,52 -9,15 -23,29 -42,40 -18,11 -43,19 -72,25 -30,6 -66,9 -107,9l-45 0c-2,9 -3,18 -4,26 0,9 -1,17 -1,25 0,28 7,49 21,64 14,15 37,22 68,22 18,0 34,-1 48,-4 14,-3 27,-5 37,-8 11,-3 19,-6 26,-9 7,-3 11,-4 14,-4 2,0 4,1 5,3 2,2 2,4 2,8 0,2 0,6 -1,10 0,4 -1,8 -2,12 -1,4 -3,8 -4,11 -2,4 -4,7 -7,9 -3,4 -9,7 -17,10 -9,3 -19,6 -31,9 -12,3 -25,5 -38,6 -14,2 -28,3 -43,3 -24,0 -46,-3 -65,-9 -19,-5 -34,-14 -47,-25 -12,-12 -21,-26 -28,-44 -6,-17 -9,-37 -9,-61 0,-18 2,-38 5,-59 4,-20 9,-41 17,-61 8,-21 17,-40 29,-59 12,-19 27,-35 43,-50 17,-14 36,-25 58,-34 22,-9 46,-13 74,-13 23,0 43,3 60,9 16,6 29,13 40,22 10,10 18,20 23,31 4,12 7,23 7,34zm-71 6c0,-14 -6,-26 -17,-35 -11,-8 -27,-13 -48,-13 -18,0 -34,3 -48,10 -14,6 -26,14 -37,25 -11,11 -20,23 -28,37 -7,14 -14,29 -18,45l42 0c30,0 54,-2 74,-6 20,-3 35,-8 47,-14 12,-7 20,-14 25,-22 5,-9 8,-18 8,-27zm489 0c0,10 -1,20 -2,29 -1,10 -3,20 -5,30l-47 236c0,2 -1,4 -3,5 -1,2 -3,3 -6,4 -3,1 -7,2 -11,3 -5,0 -10,1 -17,1 -7,0 -12,-1 -17,-1 -4,-1 -7,-2 -10,-3 -2,-1 -4,-2 -4,-4 -1,-1 -1,-3 -1,-5l46 -234c2,-8 4,-17 4,-25 1,-8 1,-15 1,-21 0,-18 -3,-31 -11,-42 -7,-10 -19,-16 -36,-16 -15,0 -30,5 -45,13 -16,9 -30,20 -44,36 -13,14 -25,32 -35,53 -11,21 -19,43 -23,67l-34 169c0,2 -1,4 -2,5 -2,2 -4,3 -7,4 -3,1 -6,2 -11,3 -5,0 -10,1 -17,1 -7,0 -13,-1 -17,-1 -4,-1 -8,-2 -10,-3 -2,-1 -4,-2 -5,-4 0,-1 0,-3 0,-5l76 -378c0,-2 1,-4 2,-6 1,-2 3,-3 6,-4 3,-1 6,-2 10,-2 4,-1 9,-1 15,-1 5,0 10,0 14,1 4,0 7,1 9,2 2,1 3,2 4,4 0,2 1,4 0,6l-14 72c4,-10 11,-20 21,-30 9,-11 20,-21 34,-30 13,-9 27,-16 43,-22 16,-6 32,-9 49,-9 19,0 35,3 47,9 13,5 23,13 31,22 8,10 13,21 17,33 3,12 5,25 5,38zm334 -78c0,2 0,5 0,8 0,3 -1,6 -2,9 -1,3 -2,6 -3,9 -2,3 -3,6 -5,8 -1,3 -3,5 -5,6 -2,1 -4,2 -7,2l-96 0 -42 210c-2,6 -2,13 -3,20 -1,7 -2,13 -2,18 0,14 3,24 9,31 7,6 16,10 30,10 7,0 14,-1 19,-2 6,-1 11,-3 15,-4 4,-2 7,-3 10,-4 3,-1 6,-2 8,-2 2,0 4,1 5,2 2,2 2,5 2,9 0,4 0,8 -1,12 0,4 -1,9 -2,13 -2,4 -3,8 -5,11 -1,3 -3,6 -5,8 -2,2 -6,4 -10,6 -5,2 -10,4 -16,5 -5,2 -11,3 -18,4 -7,1 -13,1 -19,1 -16,0 -30,-2 -41,-5 -12,-3 -21,-9 -29,-16 -8,-7 -14,-16 -18,-26 -3,-11 -5,-24 -5,-39 0,-4 0,-7 0,-11 0,-4 1,-9 2,-13 0,-5 1,-9 2,-14 0,-4 1,-8 2,-12l43 -212 -53 0c-3,0 -6,-1 -7,-3 -2,-1 -3,-5 -3,-10 0,-4 1,-9 2,-14 0,-5 2,-10 3,-14 2,-5 4,-9 7,-12 2,-3 6,-4 9,-4l53 0 18 -90c0,-2 1,-4 3,-6 1,-1 4,-3 6,-4 3,-1 7,-2 12,-3 4,0 10,-1 17,-1 6,0 12,1 16,1 4,1 8,2 10,3 3,1 4,3 5,4 0,2 1,4 0,6l-18 90 97 0c4,0 7,1 8,4 2,3 2,7 2,11zm370 72c0,19 -5,37 -14,52 -8,15 -23,29 -42,40 -18,11 -43,19 -72,25 -30,6 -66,9 -107,9l-45 0c-2,9 -3,18 -4,26 0,9 -1,17 -1,25 0,28 7,49 21,64 14,15 37,22 68,22 18,0 34,-1 48,-4 14,-3 27,-5 37,-8 11,-3 19,-6 26,-9 7,-3 11,-4 14,-4 2,0 4,1 5,3 2,2 2,4 2,8 0,2 0,6 -1,10 0,4 -1,8 -2,12 -1,4 -3,8 -4,11 -2,4 -4,7 -7,9 -3,4 -9,7 -17,10 -9,3 -19,6 -31,9 -12,3 -25,5 -38,6 -14,2 -28,3 -42,3 -25,0 -47,-3 -66,-9 -19,-5 -34,-14 -47,-25 -12,-12 -21,-26 -28,-44 -6,-17 -9,-37 -9,-61 0,-18 2,-38 5,-59 4,-20 9,-41 17,-61 8,-21 17,-40 29,-59 12,-19 27,-35 43,-50 17,-14 36,-25 58,-34 22,-9 46,-13 74,-13 23,0 43,3 60,9 16,6 29,13 40,22 10,10 18,20 23,31 4,12 7,23 7,34zm-71 6c0,-14 -6,-26 -17,-35 -11,-8 -27,-13 -48,-13 -18,0 -34,3 -48,10 -14,6 -26,14 -37,25 -11,11 -20,23 -28,37 -7,14 -14,29 -18,45l42 0c30,0 54,-2 74,-6 20,-3 35,-8 47,-14 12,-7 20,-14 25,-22 5,-9 8,-18 8,-27zm409 -83c0,1 0,3 -1,7 0,3 -1,7 -1,11 -1,4 -2,8 -3,13 -1,4 -2,8 -4,12 -2,4 -3,7 -5,10 -2,2 -4,3 -6,3 -2,0 -5,0 -7,-1 -3,-1 -6,-2 -9,-4 -3,-1 -7,-2 -11,-3 -4,-1 -9,-2 -15,-2 -9,0 -20,4 -33,13 -12,8 -25,19 -37,34 -12,15 -23,32 -33,52 -10,20 -17,41 -22,64l-33 169c0,2 -1,4 -2,5 -2,2 -4,3 -7,4 -3,1 -6,2 -11,3 -5,0 -10,1 -17,1 -7,0 -13,-1 -17,-1 -4,-1 -8,-2 -10,-3 -2,-1 -4,-2 -5,-4 0,-1 0,-3 0,-5l75 -378c0,-2 1,-4 3,-6 1,-2 3,-3 6,-4 3,-1 6,-2 10,-2 4,-1 9,-1 15,-1 6,0 10,0 14,1 4,0 7,1 9,2 2,1 3,2 4,4 1,2 1,4 0,6l-14 68c7,-11 15,-22 23,-33 9,-11 19,-20 29,-28 10,-8 21,-14 33,-19 11,-5 22,-7 33,-7 5,0 10,0 14,1 5,1 10,2 14,3 4,1 8,2 11,3 3,1 6,3 7,4 2,2 3,5 3,8z"/>
   <g>
    <path class="fil0" d="M2160 1213c7,-33 24,-60 50,-81 25,-21 55,-32 88,-32l439 0 -21 100 -272 0 -113 525 272 0 -21 100 -410 0c-43,0 -74,-13 -95,-39 -21,-25 -26,-60 -16,-103l99 -470zm1227 612l-279 0 133 -625 -151 0 -133 625 -279 0 191 -906 280 0 -38 181 317 0c33,0 58,11 74,32 17,21 22,48 15,81l-130 612zm819 0l-566 0c-43,0 -74,-13 -95,-39 -20,-25 -26,-60 -16,-103l56 -269c7,-33 23,-60 49,-81 25,-21 54,-32 88,-32l318 0 22 -101 -292 0 21 -100 457 0c34,0 58,11 75,32 16,21 20,48 13,81l-130 612zm-338 -423l-70 323 151 0 70 -323 -151 0zm685 423c-43,0 -75,-13 -95,-39 -21,-25 -26,-60 -17,-103l103 -483 -135 0 21 -100 135 0 38 -181 280 0 -38 181 136 0 -21 100 -136 0 -112 525 136 0 -21 100 -274 0z"/>
    <path class="fil0" d="M3146 836l-258 0 124 -577 -139 0 -124 577 -257 0 124 -577 -139 0 -124 577 -258 0 143 -669 947 0c31,0 54,10 69,29 14,20 19,45 12,75l-120 565zm739 0l-522 0c-39,0 -69,-12 -88,-36 -19,-24 -24,-56 -15,-95l52 -248c7,-31 22,-56 45,-76 24,-19 51,-29 81,-29l293 0 21 -93 -269 0 19 -92 422 0c31,0 53,10 68,29 15,20 19,45 13,75l-120 565zm-312 -390l-65 298 140 0 64 -298 -139 0zm834 -354l-258 0 19 -92 258 0 -19 92zm-157 744l-258 0 141 -669 258 0 -141 669zm731 -382c31,0 53,10 68,29 15,20 20,45 13,75l-30 147c-8,39 -27,71 -56,95 -30,24 -64,36 -103,36l-393 0c-40,0 -69,-12 -88,-36 -19,-24 -24,-56 -15,-95l14 -64 258 0 -23 103 139 0 43 -198 -267 0c-39,0 -68,-12 -87,-36 -19,-23 -24,-55 -16,-95l31 -144c6,-30 21,-55 45,-75 24,-19 51,-29 82,-29l446 0c30,0 53,10 68,29 15,20 19,45 13,75l-20 91 -256 0 23 -103 -140 0 -42 195 293 0z"/>
    <path class="fil0" d="M1132 0c214,0 182,0 396,0 159,0 290,130 290,290l0 864c0,158 -128,288 -286,290l-30 331c0,66 -11,63 -52,13l-345 -344 -815 0c-160,0 -290,-130 -290,-290 0,-87 0,-169 0,-256 0,-11 9,-20 20,-20l246 0c11,0 20,9 20,20 0,82 0,159 0,241 0,11 8,19 19,19l1208 0c11,0 19,-8 19,-19l0 -834c0,-11 -8,-19 -19,-19 -209,0 -172,0 -381,0 -11,0 -20,-9 -20,-20l0 -246c0,-11 9,-20 20,-20z"/>
    <path class="fil0" d="M677 0l-2 0 -3 0 -1 0 -4 0 -1 0 -3 0 -3 0 -1 0 -4 0 -1 0 -3 0 -3 0 -1 0 -4 0 -2 0 -2 0 -4 0 -1 0 -3 0 -4 0 -1 0 -4 0 -2 0 -2 0 -5 0 -1 0 -3 0 -4 0 -1 0 -4 0 -3 0 -2 0 -5 0 -1 0 -3 0 -5 0 0 0 -5 0 -3 0 -2 0 -5 0 -2 0 -3 0 0 0 -367 0c-83,0 -150,67 -150,150l0 297 0 150 0 4 0 0 0 3 0 0 0 4 0 0 1 4 0 0 0 4 0 0 1 3 0 1 0 3 0 0 1 4 0 0 1 3 0 1 1 3 0 0 1 3 0 1 1 3 0 0 1 3 0 1 1 3 0 0 1 3 0 1 2 3 0 0 1 3 1 2 1 1 0 1 1 2 0 1 2 3 0 0 1 2 1 1 0 0 1 3 1 0 1 3 1 0 0 1 2 2 0 0 1 3 1 0 1 3 1 0 1 2 1 1 1 1 1 1 0 1 2 2 0 0 2 2 1 1c1,2 2,3 4,5l0 0 2 2 1 0 1 1 0 1 2 1 0 1 2 1 0 1 2 1 1 1 1 1 2 1 0 1 2 1 1 0 2 2 0 0 3 2 0 0 3 2 0 0 3 2 1 0 1 1 2 1 2 1 1 1 2 1 1 1 3 1 2 1 2 1 2 1 1 0 2 1 1 1 2 1 1 0 3 1 1 0 3 1 0 0 3 1 1 1 2 0 1 1 3 0 1 1 2 0 2 0c2,1 4,1 6,2l1 0 2 0 2 0 2 1 1 0 3 0 1 0 3 0 1 0 2 0 2 1 2 0 1 0 0 0 2 0 422 0 179 179c21,26 27,28 27,-6l15 -173 4 -1 1 0c8,0 17,-1 25,-3l0 0c5,-1 10,-2 14,-4l1 0 3 -1 0 0 3 -1 0 0 3 -1 1 -1 3 -1 0 0 3 -1 3 -2c3,-1 5,-2 7,-3l0 0 3 -2 0 0 3 -2 1 0 2 -2 0 0 3 -2 0 0 3 -2 0 0 2 -2 2 -1 1 -1 1 0 2 -2 1 -1 2 -2 0 0 2 -1 0 -1 2 -1 1 -1 0 -1 1 0 2 -2 0 0c2,-2 3,-3 5,-5l0 -1 2 -2 0 0 2 -2 0 -1 1 -1 2 -1 0 -1 2 -2 0 0 1 -3 1 0 2 -3 0 0 1 -2 1 -1 0 0 1 -3 1 0 1 -3 1 0 0 -1 1 -2 1 -1 1 -3 0 0 1 -2 1 -1 0 -1 1 -2 1 -3 1 0 1 -3 0 -1 1 -3 0 0 1 -3 0 -1 1 -3 1 0 0 -3 1 -1 0 -3 1 0 0 -3 0 -1 1 -3 0 0 1 -4 0 0 0 -3 0 -1 1 -3 0 0 0 -4 0 0 1 -4 0 0 0 -4 0 0 0 -3 0 0 0 -4c0,-45 0,-105 0,-150l0 0 0 -297c0,-83 -67,-150 -150,-150l-158 0 0 0zm160 447l0 0c0,43 0,100 0,142l0 0 0 1 0 0 0 0 0 0 0 0 0 0 0 0 0 0 0 1 0 0 0 0 0 0 0 0 0 0 0 0 0 0 0 1 0 0 0 0 0 0 0 0 0 0 0 0 0 0 0 0 0 0 0 1 0 0 0 0 0 0 0 0 0 0 -1 0 0 0 0 1 0 0 0 0 0 0 0 0 0 0 0 0 0 0 0 0 0 0 0 1 0 0 0 0 0 0 -1 0 0 0 0 0 0 0 0 0 0 0 0 0 0 0 0 1 0 0 0 0 0 0 0 0 0 0 -1 0 0 0 0 0 0 0 0 0 0 0 0 1 0 0 0 0 0 0 0 0 -1 0 0 0 0 0 0 0 0 0 0 0 0 0 0 0 0 0 0 1 0 0 -1 0 0 0 0 0 0 0 0 0 0 0 0 0 0 0 -1 0 0 0 0 0 0 0 0 0 0 0 0 0 0 0 0 0 0 0 -1 0 0 0 0 1 0 0 0 0 0 0 0 0 0 0 -1 0 0 0 0 0 0 0 0 0 0 0 0 0 0 0 -1 0 0 0 0 0 0 0 0 0 0 0 0 0 0 0 -627 0 0 0 0 0 0 0 -1 0 0 0 0 0 0 0 0 0 0 0 -1 0 0 0 0 0 0 -1 0 0 0 0 -1 0 0 0 0 0 0 0 0 0 0 0 0 0 -1 0 0 0 0 0 0 0 0 0 0 0 0 0 0 0 0 0 -1 -1 0 0 0 0 0 0 0 0 0 0 0 0 0 0 -1 0 0 0 0 0 0 0 0 -1 0 0 0 0 0 0 0 0 0 0 0 0 0 0 -1 0 0 0 0 0 0 0 0 -1 0 0 0 0 0 0 0 0 0 0 0 0 0 0 0 0 0 0 -1 0 0 0 0 -1 0 0 0 0 0 0 0 0 0 0 0 0 0 0 0 0 0 -1 0 0 0 0 0 0 0 0 -1 0 0 0 0 0 0 -1 0 0 0 0 0 0 0 0 0 0 0 0 0 0 0 0 0 0 0 -1 0 0 0 0 0 0 0 0 0 0 0 0 0 0 0 -1 0 0 0 0 0 0 0 0 0 0 0 0 0 0 0 -1 0 0c0,-42 1,-99 0,-142l0 0 0 -290c0,-5 4,-9 9,-9l360 0 0 0 5 0 0 0 5 0 3 0 2 0 4 0 3 0 2 0 5 0 1 0 3 0 4 0 1 0 4 0 3 0 2 0 4 0 2 0 2 0 4 0 1 0 4 0 3 0 1 0 4 0 2 0 2 0 4 0 1 0 3 0 3 0 1 0 4 0 1 0 3 0 3 0 0 0 4 0 2 0 2 0 4 0 0 0 4 0 1 0 0 0 151 0c5,0 9,4 9,9l0 290z"/>
    <g>
     <path class="fil0" d="M660 298c-38,0 -69,31 -69,69 0,38 31,69 69,69 38,0 69,-31 69,-69 0,-38 -31,-69 -69,-69z"/>
     <path class="fil0" d="M486 298c-38,0 -69,31 -69,69 0,38 31,69 69,69 38,0 69,-31 69,-69 0,-38 -31,-69 -69,-69z"/>
     <path class="fil0" d="M312 298c-38,0 -68,31 -68,69 0,38 30,69 68,69 38,0 69,-31 69,-69 0,-38 -31,-69 -69,-69z"/>
    </g>
   </g>
   <polygon class="fil1" points="6739,73 6429,1758 6396,1752 6705,67 "/>
  </g>
 </g>
</svg>
