<?xml version="1.0" encoding="UTF-8"?>
<!DOCTYPE svg PUBLIC "-//W3C//DTD SVG 1.1//EN" "http://www.w3.org/Graphics/SVG/1.1/DTD/svg11.dtd">
<!-- Creator: CorelDRAW Home & Student X7 -->
<svg xmlns="http://www.w3.org/2000/svg" xml:space="preserve" width="10.9574mm" height="11.0013mm" version="1.1" style="shape-rendering:geometricPrecision; text-rendering:geometricPrecision; image-rendering:optimizeQuality; fill-rule:evenodd; clip-rule:evenodd"
viewBox="0 0 3786 3801"
 xmlns:xlink="http://www.w3.org/1999/xlink">
 <defs>
  <style type="text/css">
   <![CDATA[
    .fil0 {fill:#FF6600}
   ]]>
  </style>
 </defs>
 <g id="Camada_x0020_1">
  <metadata id="CorelCorpID_0Corel-Layer"/>
  <g id="_242539624">
   <path class="fil0" d="M2358 0c445,0 379,0 824,0 332,0 604,272 604,603l0 1801c0,329 -267,599 -596,603l-62 690c0,137 -22,131 -108,26l-719 -716 -1698 0c-332,0 -603,-271 -603,-603 0,-182 0,-353 0,-535 0,-22 19,-41 42,-41l512 0c22,0 41,19 41,41 0,172 0,332 0,504 0,21 18,39 39,39l2517 0c22,0 39,-18 39,-39l0 -1739c0,-21 -17,-39 -39,-39 -434,0 -359,0 -793,0 -23,0 -42,-19 -42,-41l0 -512c0,-23 19,-42 42,-42z"/>
   <path class="fil0" d="M1409 0l-3 0 -8 0 -1 0 -8 0 -2 0 -6 0 -6 0 -2 0 -9 0 -2 0 -6 0 -7 0 -1 0 -9 0 -4 0 -4 0 -9 0 -1 0 -8 0 -7 0 -2 0 -9 0 -4 0 -5 0 -9 0 -2 0 -7 0 -8 0 -1 0 -10 0 -6 0 -4 0 -9 0 -3 0 -7 0 -10 0 0 0 -11 0 -7 0 -3 0 -10 0 -4 0 -7 0 -1 0 -764 0c-171,0 -311,140 -311,312l0 619 0 312 0 8 0 0 0 8 0 0 0 8 0 0 1 7 0 1 1 7 0 0 1 8 0 0 1 7 0 1 2 7 0 1 1 7 1 0 1 7 0 1 2 6 0 1 2 7 1 0 2 7 0 1 2 6 1 1 2 6 0 1 3 6 0 1 3 6 2 5 1 2 0 1 3 6 1 1 3 5 0 0 3 5 0 2 1 1 3 5 1 1 3 5 1 2 1 2 3 4 0 0 3 5 1 1 4 5 0 0 3 5 2 1 2 3 2 3 1 1 4 4 0 1 3 3 2 2c3,4 6,7 9,10l1 1 4 4 1 1 2 1 1 2 3 3 1 1 4 3 1 1 3 2 3 3 2 2 3 2 1 1 4 3 1 1 4 3 2 1 5 4 1 0 5 4 1 0 5 3 2 2 3 2 3 2 4 2 2 1 5 3 2 1 6 3 5 2 3 1 4 2 2 1 6 3 1 0 5 2 3 1 5 2 1 0 6 2 1 1 6 2 2 0 5 2 2 0 5 2 3 0 4 1 3 1c5,1 9,2 13,2l3 1 5 1 3 0 4 1 3 0 6 0 2 1 5 0 3 0 4 0 4 1 5 0 1 0 1 0 3 0 881 0 372 374c44,54 56,57 56,-13l32 -361 7 0 1 0c19,-1 37,-4 54,-7l0 0c10,-3 19,-5 29,-8l1 -1 6 -2 1 0 7 -2 0 0 6 -3 1 0 6 -3 2 0 5 -3 7 -3c5,-2 9,-5 13,-7l1 -1 6 -3 0 0 6 -4 2 -1 5 -3 0 0 6 -4 0 0 6 -4 1 -1 4 -3 2 -2 5 -3 0 -1 5 -4 1 -1 5 -3 0 -1 4 -3 1 -1 3 -3 2 -2 1 -1 2 -1 3 -4 1 -1c3,-3 6,-6 9,-10l2 -2 3 -3 1 -1 3 -4 1 -1 2 -3 3 -3 1 -1 3 -5 0 0 4 -5 1 -1 3 -5 0 0 3 -4 1 -2 1 -2 3 -5 1 -1 3 -5 1 -1 1 -2 2 -5 1 -1 3 -5 0 -1 3 -5 0 -1 1 -2 2 -5 3 -6 0 -1 3 -6 0 -1 3 -6 0 -1 2 -6 0 -1 3 -7 0 0 2 -7 0 -1 2 -6 0 -1 2 -7 0 0 1 -7 0 -1 2 -7 0 -1 1 -7 0 0 1 -8 0 0 1 -7 0 -1 1 -7 0 0 0 -8 0 0 1 -8 0 0 0 -8c0,-94 0,-218 0,-312l0 0 0 -619c0,-172 -141,-312 -312,-312l-330 0 -1 0zm335 930l0 1c0,89 0,207 0,296l0 0 0 1 0 0 0 0 0 0 0 1 0 0 0 0 0 0 0 1 0 0 0 0 0 0 0 1 0 0 -1 0 0 0 0 1 0 0 0 0 0 0 0 1 0 0 0 0 0 0 0 1 0 0 0 0 0 0 -1 1 0 0 0 0 0 0 0 1 0 0 0 0 0 0 -1 1 0 0 0 0 0 0 0 0 0 0 0 1 0 0 -1 0 0 0 0 1 0 0 0 0 0 0 0 0 0 0 -1 1 0 0 0 0 0 0 0 0 0 0 -1 1 0 0 0 0 0 0 0 1 0 0 -1 0 0 0 0 0 0 0 0 0 0 0 -1 1 0 0 0 0 0 0 -1 0 0 0 0 1 0 0 0 0 0 0 -1 0 0 0 0 0 0 0 -1 1 0 0 0 0 0 0 -1 0 0 0 0 0 0 0 0 1 0 0 -1 0 0 0 0 0 0 0 -1 0 0 0 0 0 0 0 -1 0 0 0 0 0 0 0 -1 1 0 0 0 0 0 0 -1 0 0 0 0 0 0 0 -1 0 0 0 0 0 0 0 -1 0 0 0 0 0 0 0 -1 0 0 0 0 0 0 0 -1304 0 -1 0 0 0 -1 0 -1 0 0 0 0 0 -1 0 0 0 -1 0 0 0 0 -1 -1 0 0 0 0 0 0 0 -1 0 0 0 0 0 -1 0 0 0 0 0 0 0 -1 -1 0 0 0 0 0 0 -1 0 0 0 0 0 -1 -1 0 0 0 0 0 0 0 0 0 0 -1 0 0 -1 0 0 -1 0 0 0 0 0 0 -1 0 0 -1 0 0 0 0 0 0 0 0 0 0 0 -1 -1 0 0 0 0 0 0 0 -1 0 0 -1 0 0 0 0 0 0 0 0 -1 0 0 -1 0 0 0 0 0 0 0 0 -1 0 0 -1 0 0 0 0 -1 0 0 0 0 0 0 0 0 -1 -1 0 0 0 0 0 0 0 -1 0 0 0 0 0 0 0 -1 0 0 -1 0 0 0 0 -1 0 0 0 0 0 0 0 -1 0 0 0 0 0 0 0 -1 0 0 0 0 0 0 0 -1 0 0 -1 0 0 0 0 -1 0 0 0 0 0 0 0 -1 0 0 0 0 0 0 0 -1 0 0c0,-89 2,-207 0,-296l0 -1 0 -602c0,-11 9,-20 21,-20l747 0 1 0 10 0 1 0 10 0 7 0 3 0 10 0 4 0 5 0 10 0 2 0 8 0 8 0 1 0 9 0 6 0 3 0 9 0 4 0 5 0 9 0 1 0 8 0 7 0 1 0 9 0 4 0 4 0 9 0 1 0 7 0 7 0 1 0 8 0 4 0 4 0 8 0 0 0 8 0 4 0 4 0 8 0 0 0 8 0 2 0 1 0 314 0c11,0 20,9 20,20l0 602z"/>
   <g>
    <circle class="fil0" cx="1374" cy="764" r="143"/>
    <circle class="fil0" cx="1012" cy="764" r="143"/>
    <circle class="fil0" cx="651" cy="764" r="143"/>
   </g>
  </g>
 </g>
</svg>
